<svg width="33" height="35" viewBox="0 0 33 35" fill="none" xmlns="http://www.w3.org/2000/svg">
<path d="M33 17.469C33 20.0754 32.6463 22.4542 31.9388 24.6055C31.2313 26.7361 30.1815 28.5771 28.7894 30.1285C27.3973 31.68 25.6629 32.8797 23.5861 33.7278C21.5322 34.5759 19.1359 35 16.3973 35C13.7956 35 11.4793 34.5863 9.44813 33.7589C7.41701 32.9108 5.69398 31.711 4.27905 30.1596C2.88693 28.6082 1.82573 26.7671 1.09544 24.6365C0.365145 22.4852 0 20.096 0 17.469C0 13.849 0.661826 10.7358 1.98548 8.12943C3.33195 5.50236 5.24896 3.49586 7.73652 2.10993C10.2469 0.70331 13.2479 0 16.7396 0C20.3454 0 23.3465 0.744681 25.7427 2.23404C28.1618 3.70272 29.9761 5.75059 31.1857 8.37766C32.3952 11.0047 33 14.0352 33 17.469ZM3.56017 17.469C3.56017 20.427 4.02801 23.0127 4.96369 25.2261C5.89938 27.4394 7.31432 29.1667 9.20851 30.4078C11.1255 31.6489 13.5446 32.2695 16.4658 32.2695C19.4554 32.2695 21.9087 31.6489 23.8257 30.4078C25.7427 29.1667 27.1577 27.4291 28.0705 25.195C28.9834 22.961 29.4398 20.3856 29.4398 17.469C29.4398 14.635 29.0062 12.1114 28.139 9.89805C27.2718 7.68469 25.9025 5.9471 24.0311 4.68528C22.1598 3.40278 19.7178 2.76152 16.7054 2.76152C12.3921 2.76152 9.11722 4.06472 6.88071 6.6711C4.66701 9.27748 3.56017 12.8768 3.56017 17.469Z" fill="#0D9488"/>
</svg>
